<svg width="20" height="20" viewBox="0 0 20 20" fill="none" xmlns="http://www.w3.org/2000/svg">
<g id="Chart">
<path id="Chart_2" fill-rule="evenodd" clip-rule="evenodd" d="M5.33043 0.000488281H14.6694C18.0704 0.000488281 19.9904 1.92949 20.0004 5.33049V14.6705C20.0004 18.0705 18.0704 20.0005 14.6694 20.0005H5.33043C1.92943 20.0005 0.000427246 18.0705 0.000427246 14.6705V5.33049C0.000427246 1.92949 1.92943 0.000488281 5.33043 0.000488281ZM10.0494 15.8605C10.4804 15.8605 10.8394 15.5405 10.8794 15.1105V4.92049C10.9194 4.61049 10.7704 4.29949 10.5004 4.13049C10.2194 3.96049 9.87943 3.96049 9.61043 4.13049C9.33943 4.29949 9.19043 4.61049 9.21943 4.92049V15.1105C9.27043 15.5405 9.62943 15.8605 10.0494 15.8605ZM14.6504 15.8605C15.0704 15.8605 15.4294 15.5405 15.4804 15.1105V11.8305C15.5094 11.5095 15.3604 11.2105 15.0894 11.0405C14.8204 10.8705 14.4804 10.8705 14.2004 11.0405C13.9294 11.2105 13.7804 11.5095 13.8204 11.8305V15.1105C13.8604 15.5405 14.2194 15.8605 14.6504 15.8605ZM6.21943 15.1105C6.17943 15.5405 5.82043 15.8605 5.38943 15.8605C4.95943 15.8605 4.59943 15.5405 4.56043 15.1105V8.20049C4.53043 7.88949 4.67943 7.58049 4.95043 7.41049C5.21943 7.24049 5.56043 7.24049 5.83043 7.41049C6.09943 7.58049 6.25043 7.88949 6.21943 8.20049V15.1105Z" fill="#9333EA"/>
</g>
</svg>
