<svg width="24" height="24" viewBox="0 0 24 24" fill="none" xmlns="http://www.w3.org/2000/svg">
<g id="Folder">
<path id="Folder_2" fill-rule="evenodd" clip-rule="evenodd" d="M13.6916 3.69357H17.2733C21.5783 3.69357 23.6783 5.99191 23.6666 10.7052V16.3869C23.6666 20.8902 20.8899 23.6669 16.3749 23.6669H7.61325C3.12159 23.6669 0.333252 20.8902 0.333252 16.3752V7.61357C0.333252 2.78357 2.47992 0.333573 6.71492 0.333573H8.55825C9.64442 0.321906 10.6583 0.823573 11.3233 1.67524L12.3499 3.04024C12.6766 3.44857 13.1666 3.69357 13.6916 3.69357ZM6.59825 15.8386H17.4016C17.8799 15.8386 18.2649 15.4419 18.2649 14.9636C18.2649 14.4736 17.8799 14.0886 17.4016 14.0886H6.59825C6.10825 14.0886 5.72325 14.4736 5.72325 14.9636C5.72325 15.4419 6.10825 15.8386 6.59825 15.8386Z" fill="#9333EA"/>
</g>
</svg>
